<svg width="3548" height="3566" viewBox="0 0 3548 3566" fill="none" xmlns="http://www.w3.org/2000/svg">
<path d="M1811.63 3056.67H516.744C838.782 3371.97 1278.72 3566 1765.15 3566C1954.46 3566 2136.37 3536.36 2307.49 3481.78C2119.52 3367.93 1951.77 3223.75 1811.63 3056.67Z" fill="#0E0D11"/>
<path d="M3376.68 2547.34H1500.38C1578.53 2733.28 1683.63 2904.41 1810.96 3056.67H3012.2C3161.77 2910.47 3285.73 2738 3376.68 2547.34Z" fill="#0E0D11"/>
<path d="M1363.61 2037.33H0C25.6013 2217.21 78.1515 2388.34 153.608 2546.66H1501.05C1433 2386.99 1386.52 2215.87 1363.61 2037.33Z" fill="#0E0D11"/>
<path d="M3547.81 1782.66C3547.81 1696.43 3541.74 1610.87 3529.62 1528H1362.26C1352.15 1610.19 1346.77 1693.73 1346.77 1778.62C1346.77 1866.21 1352.83 1953.12 1363.61 2038H3530.29C3541.74 1954.46 3547.81 1869.57 3547.81 1782.66Z" fill="#0E0D11"/>
<path d="M1497.01 1018.67H153.608C78.1515 1176.99 25.6013 1348.11 0 1528H1362.26C1384.49 1349.46 1430.31 1179.01 1497.01 1018.67Z" fill="#0E0D11"/>
<path d="M3376.68 1018.67C3285.73 828.004 3162.44 655.532 3012.88 509.334H1804.22C1678.24 661.595 1573.81 833.394 1497.01 1018.67H3376.68Z" fill="#0E0D11"/>
<path d="M1804.22 509.334C1943.68 340.904 2110.76 196.054 2298.06 80.8481C2129.63 28.298 1950.42 0.00174276 1765.15 0.00174276C1278.72 -0.671977 838.782 194.033 516.744 509.334H1804.22Z" fill="#0E0D11"/>
</svg>
